# xmcd
#
# Track frame offsets:
#	150
#	872
#	14671
#	25922
#	37622
#
# Disc length: 707 seconds
#
# Revision: 1
# Processed by: cddbd v1.4PL0 Copyright (c) Steve Scherf et al.
# Submitted via: audiograbber 1.81.03
#
DISCID=2502c105
DTITLE=Westend - Merry Christmas
DYEAR=1900
DGENRE=Country
TTITLE0=Weihnachtsgrüße
TTITLE1=Winterwonderland
TTITLE2=Santa looked a lot like daddy
TTITLE3=Rudolph, the red nosed reindeer
TTITLE4=Christmas in your arms
EXTD=
EXTT0=
EXTT1=
EXTT2=
EXTT3=
EXTT4=
PLAYORDER=
